<?xml version="1.0" standalone="no"?>
<!DOCTYPE svg PUBLIC "-//W3C//DTD SVG 20010904//EN"
 "http://www.w3.org/TR/2001/REC-SVG-20010904/DTD/svg10.dtd">
<svg version="1.0" xmlns="http://www.w3.org/2000/svg"
 width="223.000000pt" height="223.000000pt" viewBox="0 0 223.000000 223.000000"
 preserveAspectRatio="xMidYMid meet">
<metadata>
Created by potrace 1.11, written by Peter Selinger 2001-2013
</metadata>
<g transform="translate(0.000000,223.000000) scale(0.100000,-0.100000)"
fill="#000000" stroke="none">
<path d="M1 1123 l1 -413 21 -1 c31 -1 209 -1 227 0 13 1 15 23 14 137 0 74 3
137 7 140 4 2 53 -59 109 -136 74 -102 108 -140 124 -141 94 -3 297 -1 302 4
3 3 -53 83 -124 178 l-130 173 39 19 c47 23 85 66 112 127 39 88 16 194 -58
259 -73 64 -82 65 -378 66 l-267 1 1 -413z m466 239 c26 -17 42 -63 31 -93
-14 -42 -35 -49 -141 -49 l-94 0 0 75 1 75 95 0 c53 0 101 -4 108 -8z"/>
<path d="M758 1485 c28 -30 56 -68 64 -85 l13 -30 282 0 283 0 0 85 0 85 -346
0 -346 0 50 -55z"/>
<path d="M1433 1533 c4 -7 233 -388 242 -403 2 -3 -30 -59 -71 -125 -40 -66
-89 -147 -108 -180 -20 -33 -45 -75 -57 -92 l-21 -33 151 0 150 0 52 90 53 89
21 -32 c12 -18 36 -57 52 -87 l31 -55 151 -3 151 -3 -32 53 c-17 29 -39 67
-48 83 -9 17 -45 74 -79 128 -33 54 -61 101 -61 104 0 3 -8 17 -19 31 l-18 27
118 203 c66 112 119 205 119 207 0 3 -65 5 -144 5 l-143 0 -48 -80 c-27 -43
-52 -77 -56 -74 -4 2 -27 38 -50 79 l-43 75 -149 0 c-81 0 -146 -3 -144 -7z"/>
<path d="M836 1191 c-20 -42 -57 -86 -96 -113 -24 -16 -8 -17 323 -17 l347 -1
0 85 0 85 -278 0 -279 0 -17 -39z"/>
<path d="M846 852 c20 -31 51 -78 68 -104 l31 -48 227 0 228 0 0 105 0 105
-295 0 -295 -1 36 -57z"/>
</g>
</svg>
