<svg xmlns="http://www.w3.org/2000/svg" width="182" height="82">
  <defs>
    <path id="path-1" d="M0 .165v67.421h65.994V.165H0z"/>
    <path id="path-3" d="M.154 7h5.76V.187H.154V7z"/>
    <path id="path-5" d="M0 82.836h181.09V1H0z"/>
  </defs>
  <g id="Header" fill="none" fill-rule="evenodd">
    <g id="Navigation---Wireframes/-Mockups" transform="translate(0 -21)">
      <g id="Page-1" transform="translate(0 20)">
        <g id="Group-3" transform="translate(0 .836)">
          <path id="Fill-1" fill="#15498C" d="M36.294 25.98l-15.097.01V13.768l15.348.038s3.69 1.656 4.01 5.675c.404 4.99-4.261 6.5-4.261 6.5zm8.1 12.448C58.578 34.46 67.718 8.8 41.902.163H0l.124 67.38H21.22V44.668h1.187l16.842 22.918h26.745l-21.6-29.16z"/>
        </g>
        <path id="Fill-4" fill="#008F4D" d="M56.748 1.148c2.958 2.283 8.699 7.363 11.072 13.837h45.468V1.148h-56.54z"/>
        <path id="Fill-6" fill="#008F4D" d="M68.519 25.973c-1.41 4.5-3.537 9.62-11.291 13.959h56.026v-13.96H68.519z"/>
        <path id="Fill-8" fill="#008F4D" d="M65.474 51.39l10.911 17.088 36.903-.126v-17.09z"/>
        <path id="Fill-10" fill="#15498C" d="M114.799 1.01l23.863.005 7.908 13.313 8.13-13.313h23.502l-19.47 33.25 20.65 34.136H155.43l-8.69-14.67-8.568 14.67h-24.124l20.808-34.136z"/>
        <path id="Fill-12" fill="#213F99" d="M1.493 79.045h1.282c.318 0 .575-.04.774-.118.198-.08.353-.177.462-.294a.932.932 0 0 0 .225-.377 1.31 1.31 0 0 0 .059-.365c0-.11-.02-.232-.06-.366a.949.949 0 0 0-.224-.376 1.285 1.285 0 0 0-.462-.293c-.2-.08-.456-.12-.774-.12H1.493v2.309zm-.604-2.856h1.703c.086 0 .2.002.348.009.146.005.305.024.476.054.17.03.345.078.522.146.177.068.336.166.476.293.14.129.257.29.348.486.092.194.137.433.137.714 0 .31-.052.567-.16.769a1.482 1.482 0 0 1-.402.489c-.162.125-.341.22-.536.28a3.43 3.43 0 0 1-.56.129l1.888 3.114h-.687l-1.823-3.077H1.493v3.077H.889v-6.483z"/>
        <path id="Fill-14" fill="#213F99" d="M7.234 76.188H11.2v.55H7.84v2.306h3.15v.55H7.84v2.528h3.507v.55H7.234z"/>
        <path id="Fill-16" fill="#213F99" d="M15.137 79.265l-2.216-3.076h.715l1.867 2.637 1.841-2.637h.724l-2.199 3.076 2.41 3.407h-.752l-2.05-2.93-2.053 2.93h-.723z"/>
        <path id="Fill-18" fill="#213F99" d="M23.388 76.188h3.965v.55h-3.36v2.306h3.15v.55h-3.15v2.528H27.5v.55h-4.112z"/>
        <path id="Fill-20" fill="#213F99" d="M29.734 76.188h.604v5.934h3.022v.55h-3.626z"/>
        <path id="Fill-22" fill="#213F99" d="M35.228 76.188h3.965v.55h-3.36v2.306h3.15v.55h-3.15v2.528h3.508v.55h-4.113z"/>
        <g id="Group-26" transform="translate(41 75.836)">
          <path id="Fill-24" fill="#213F99" d="M5.914 5.82c-.312.42-.67.723-1.08.904A3.2 3.2 0 0 1 3.504 7c-.494 0-.947-.084-1.36-.25a3.092 3.092 0 0 1-1.057-.706A3.222 3.222 0 0 1 .4 4.964a3.705 3.705 0 0 1-.247-1.372c0-.493.082-.948.247-1.363A3.119 3.119 0 0 1 2.145.443a3.52 3.52 0 0 1 1.36-.256c.44 0 .851.077 1.232.234.382.155.716.416 1.003.782l-.495.413a1.775 1.775 0 0 0-.773-.668 2.313 2.313 0 0 0-.967-.212 2.82 2.82 0 0 0-1.14.221 2.507 2.507 0 0 0-.865.604 2.684 2.684 0 0 0-.55.904c-.128.35-.192.725-.192 1.127 0 .404.064.78.192 1.127.13.35.312.65.55.907.238.256.526.458.865.604.34.148.72.22 1.14.22a2.377 2.377 0 0 0 1.512-.554c.152-.126.286-.276.403-.453l.494.376z"/>
        </g>
        <path id="Fill-27" fill="#213F99" d="M50.375 76.737h-2.216v-.549h5.037v.55h-2.217v5.933h-.604z"/>
        <path id="Fill-29" fill="#213F99" d="M55.714 79.045h1.282c.317 0 .575-.04.774-.118.198-.08.352-.177.462-.294a.918.918 0 0 0 .224-.377c.04-.133.06-.255.06-.365 0-.11-.02-.232-.06-.366a.935.935 0 0 0-.224-.376 1.294 1.294 0 0 0-.462-.293c-.199-.08-.457-.12-.774-.12h-1.282v2.309zm-.605-2.856h1.704c.085 0 .201.002.347.009.147.005.306.024.477.054.17.03.345.078.522.146.177.068.335.166.476.293.141.129.256.29.348.486.091.194.137.433.137.714 0 .31-.053.567-.159.769a1.485 1.485 0 0 1-.404.489c-.16.125-.34.22-.536.28a3.42 3.42 0 0 1-.558.129l1.886 3.114h-.686l-1.823-3.077h-1.126v3.077h-.605v-6.483z"/>
        <path id="Fill-31" fill="#213F99" d="M61.456 82.672h.604v-6.483h-.604z"/>
        <path id="Fill-33" fill="#213F99" d="M70.091 81.655c-.312.42-.672.724-1.08.905a3.197 3.197 0 0 1-1.329.276c-.494 0-.947-.084-1.359-.25a3.096 3.096 0 0 1-1.058-.706 3.253 3.253 0 0 1-.687-1.08 3.726 3.726 0 0 1-.247-1.372c0-.493.083-.948.247-1.363.165-.415.394-.774.687-1.076a3.123 3.123 0 0 1 1.058-.71 3.511 3.511 0 0 1 1.36-.256c.44 0 .85.077 1.231.234.382.155.717.416 1.003.782l-.494.413a1.79 1.79 0 0 0-.774-.668 2.313 2.313 0 0 0-.967-.212c-.42 0-.8.073-1.139.221-.34.145-.628.347-.866.604a2.666 2.666 0 0 0-.549.904c-.128.35-.193.725-.193 1.127 0 .404.065.78.193 1.127.128.35.311.65.55.907.237.256.525.458.865.604.338.148.718.22 1.14.22a2.384 2.384 0 0 0 1.511-.554c.152-.126.287-.276.402-.453l.495.376z"/>
        <path id="Fill-34" fill="#213F99" d="M77.683 76.847L76.171 80.4h2.977l-1.465-3.553zm-.284-.658h.622l2.73 6.483h-.678l-.705-1.721h-3.434l-.733 1.72h-.632l2.83-6.482z"/>
        <path id="Fill-35" fill="#213F99" d="M82.6 76.188h.779l3.947 5.678h.018v-5.678h.605v6.483h-.78l-3.945-5.678h-.02v5.678h-.603z"/>
        <path id="Fill-36" fill="#213F99" d="M91.163 82.122h1.245c.428 0 .827-.053 1.2-.161.372-.107.696-.27.971-.489a2.29 2.29 0 0 0 .65-.839c.16-.338.238-.74.238-1.204 0-.464-.079-.866-.239-1.204a2.275 2.275 0 0 0-.649-.837 2.771 2.771 0 0 0-.97-.491 4.33 4.33 0 0 0-1.2-.16h-1.246v5.385zm-.605-5.934h2.006c.561 0 1.037.069 1.43.205.39.138.714.313.974.528.26.213.464.449.614.709a3.477 3.477 0 0 1 .462 1.392c.018.192.027.329.027.407 0 .08-.009.215-.027.408a3.462 3.462 0 0 1-.462 1.39c-.15.261-.354.499-.614.711-.26.214-.585.39-.975.527-.392.136-.868.207-1.429.207h-2.006v-6.484z"/>
        <path id="Fill-37" fill="#213F99" d="M103.077 76.737h-2.217v-.549h5.037v.55h-2.216v5.933h-.604z"/>
        <path id="Fill-38" fill="#213F99" d="M107.811 76.188h3.965v.55h-3.361v2.306h3.15v.55h-3.15v2.528h3.507v.55h-4.111z"/>
        <path id="Fill-39" fill="#213F99" d="M119.496 81.655c-.31.42-.672.724-1.08.905a3.2 3.2 0 0 1-1.328.276c-.495 0-.948-.084-1.36-.25a3.096 3.096 0 0 1-1.058-.706 3.253 3.253 0 0 1-.687-1.08 3.705 3.705 0 0 1-.247-1.372c0-.493.082-.948.247-1.363.165-.415.394-.774.687-1.076a3.123 3.123 0 0 1 1.058-.71 3.513 3.513 0 0 1 1.36-.256c.44 0 .85.077 1.232.234.381.155.716.416 1.002.782l-.494.413a1.783 1.783 0 0 0-.774-.668 2.311 2.311 0 0 0-.966-.212c-.422 0-.802.073-1.14.221a2.52 2.52 0 0 0-.866.604 2.681 2.681 0 0 0-.549.904c-.128.35-.192.725-.192 1.127 0 .404.064.78.192 1.127a2.548 2.548 0 0 0 1.415 1.511c.338.148.718.22 1.14.22a2.375 2.375 0 0 0 1.511-.554c.152-.126.287-.276.402-.453l.495.376z"/>
        <path id="Fill-40" fill="#213F99" d="M121.52 76.188h.605v2.856h3.626v-2.856h.605v6.483h-.605v-3.077h-3.627v3.077h-.603z"/>
        <path id="Fill-41" fill="#213F99" d="M129.048 76.188h.778l3.947 5.678h.018v-5.678h.604v6.483h-.778l-3.946-5.678h-.02v5.678h-.603z"/>
        <path id="Fill-42" fill="#213F99" d="M137.271 79.429c0 .403.064.779.192 1.127.128.349.311.649.55.906.238.257.527.458.865.605.339.147.718.219 1.14.219a2.82 2.82 0 0 0 1.14-.22 2.52 2.52 0 0 0 .865-.604c.239-.257.422-.557.55-.906.129-.348.192-.724.192-1.127a3.23 3.23 0 0 0-.192-1.127 2.643 2.643 0 0 0-.55-.904 2.523 2.523 0 0 0-.865-.605 2.837 2.837 0 0 0-1.14-.22c-.422 0-.801.073-1.14.22a2.532 2.532 0 0 0-.865.605 2.643 2.643 0 0 0-.55.904c-.128.35-.192.725-.192 1.127m-.605 0c0-.493.083-.948.248-1.363a3.21 3.21 0 0 1 .687-1.076 3.104 3.104 0 0 1 1.057-.71 3.513 3.513 0 0 1 1.36-.256c.495 0 .948.085 1.36.256a3.108 3.108 0 0 1 1.744 1.786c.166.415.247.87.247 1.363 0 .495-.081.95-.247 1.37a3.235 3.235 0 0 1-.686 1.08 3.082 3.082 0 0 1-1.058.706 3.587 3.587 0 0 1-1.36.25c-.495 0-.948-.083-1.36-.25a3.078 3.078 0 0 1-1.744-1.786 3.704 3.704 0 0 1-.248-1.37"/>
        <path id="Fill-43" fill="#213F99" d="M145.641 76.188h.604v5.934h3.023v.55h-3.627z"/>
        <path id="Fill-44" fill="#213F99" d="M151.319 79.429c0 .403.064.779.192 1.127.129.349.31.649.55.906.238.257.526.458.865.605.339.147.719.219 1.14.219.42 0 .8-.072 1.14-.22.339-.146.628-.347.866-.604s.42-.557.55-.906c.127-.348.192-.724.192-1.127 0-.402-.065-.777-.192-1.127a2.674 2.674 0 0 0-.55-.904 2.532 2.532 0 0 0-.865-.605c-.34-.147-.72-.22-1.141-.22-.421 0-.801.073-1.14.22a2.523 2.523 0 0 0-.865.605 2.658 2.658 0 0 0-.55.904c-.128.35-.192.725-.192 1.127m-.604 0c0-.493.082-.948.247-1.363.165-.415.394-.775.687-1.076a3.099 3.099 0 0 1 1.058-.71 3.508 3.508 0 0 1 1.359-.256c.494 0 .948.085 1.36.256a3.108 3.108 0 0 1 1.745 1.786c.165.415.247.87.247 1.363 0 .495-.082.95-.247 1.37a3.253 3.253 0 0 1-.687 1.08 3.082 3.082 0 0 1-1.058.706 3.59 3.59 0 0 1-1.36.25 3.59 3.59 0 0 1-1.36-.25 3.073 3.073 0 0 1-1.057-.705 3.253 3.253 0 0 1-.687-1.081 3.704 3.704 0 0 1-.247-1.37"/>
        <path id="Fill-45" fill="#213F99" d="M165.037 82.25a4.183 4.183 0 0 1-1.178.453 5.764 5.764 0 0 1-1.24.133c-.495 0-.948-.084-1.36-.251a3.078 3.078 0 0 1-1.057-.705 3.253 3.253 0 0 1-.687-1.081 3.704 3.704 0 0 1-.248-1.37c0-.493.083-.949.248-1.364.165-.415.394-.774.687-1.076a3.133 3.133 0 0 1 1.057-.71 3.513 3.513 0 0 1 1.36-.256c.965 0 1.743.299 2.335.898l-.439.458a1.923 1.923 0 0 0-.362-.326 2.394 2.394 0 0 0-.468-.255 2.972 2.972 0 0 0-.525-.166 2.846 2.846 0 0 0-1.682.161 2.526 2.526 0 0 0-.864.604 2.647 2.647 0 0 0-.55.905 3.245 3.245 0 0 0-.193 1.127c0 .403.065.779.193 1.127s.311.649.55.906c.238.257.526.458.864.604.34.148.72.22 1.141.22.348 0 .674-.027.98-.082.305-.055.583-.156.833-.303v-2.179h-1.556v-.549h2.161v3.077z"/>
        <path id="Fill-46" fill="#213F99" d="M167.729 82.672h.604v-6.483h-.604z"/>
        <path id="Fill-47" fill="#213F99" d="M171.026 76.188h3.965v.55h-3.361v2.306h3.15v.55h-3.15v2.528h3.507v.55h-4.111z"/>
        <path id="Fill-48" fill="#213F99" d="M177.546 81.472c.158.274.364.479.617.613.254.135.542.2.866.2.202 0 .391-.03.567-.09.178-.061.331-.147.463-.256.132-.11.235-.243.311-.398.076-.156.114-.332.114-.527 0-.226-.046-.413-.142-.558a1.144 1.144 0 0 0-.379-.362 2.735 2.735 0 0 0-.537-.243 27.623 27.623 0 0 0-.612-.201 7 7 0 0 1-.614-.23 2.013 2.013 0 0 1-.536-.334 1.474 1.474 0 0 1-.38-.517 1.862 1.862 0 0 1-.14-.77c0-.286.055-.542.168-.765.113-.222.265-.408.457-.558.193-.15.414-.263.665-.338.25-.077.512-.114.787-.114.354 0 .683.06.985.188.302.124.563.333.783.627l-.523.374a1.544 1.544 0 0 0-.535-.48 1.554 1.554 0 0 0-.728-.16c-.196 0-.382.026-.559.078-.177.05-.33.127-.462.229a1.11 1.11 0 0 0-.316.379 1.15 1.15 0 0 0-.119.54c0 .324.083.572.247.748.165.173.371.31.618.41.248.1.516.19.806.267.29.076.558.178.806.307.247.128.453.306.618.536.164.228.247.544.247.947 0 .293-.055.553-.164.779-.11.224-.258.416-.445.572a1.905 1.905 0 0 1-.645.352 2.46 2.46 0 0 1-.76.119c-.428 0-.82-.075-1.182-.224a2.17 2.17 0 0 1-.925-.755l.578-.385z"/>
      </g>
    </g>
  </g>
</svg>
