<?xml version="1.0" encoding="UTF-8"?>
<svg width="16px" height="23px" viewBox="0 0 16 23" version="1.1" xmlns="http://www.w3.org/2000/svg" xmlns:xlink="http://www.w3.org/1999/xlink">
    <!-- Generator: Sketch 46.2 (44496) - http://www.bohemiancoding.com/sketch -->
    <title>Fill 1</title>
    <desc>Created with Sketch.</desc>
    <defs></defs>
    <g id="Mockups" stroke="none" stroke-width="1" fill="none" fill-rule="evenodd">
        <g id="Contact-Us" transform="translate(-959.000000, -690.000000)" fill="#E04040">
            <g id="find-a-club-copy-2" transform="translate(955.000000, 680.000000)">
                <path d="M19.6219507,15.7250833 C19.5387283,15.4180972 19.3709931,15.0909861 19.246482,14.804125 C17.7607355,11.267875 14.5137696,10 11.8916173,10 C8.38240394,10 4.51675336,12.3309861 4,17.1351111 L4,18.1158056 C4,18.1570139 4.01387041,18.5250139 4.0338696,18.7096528 C4.32385791,20.9981528 6.14830047,23.4316806 7.51050361,25.7214583 C8.97592839,28.1744722 10.4968348,30.587875 12.0035482,33 C12.9335107,31.4251389 13.8596024,29.8304722 14.7669852,28.2968194 C15.0150397,27.8476806 15.3024475,27.3985417 15.5495343,26.9692083 C15.7143664,26.6820278 16.0308052,26.3964444 16.1743478,26.1306667 C17.6397726,23.4728889 20,20.7949861 20,18.1570139 L20,17.0737778 C20,16.7881944 19.6419499,15.7860972 19.6219507,15.7250833 Z M11.884857,21 C10.8197284,21 9.65437993,20.4798741 9.07936368,19.0418791 C8.99346084,18.8130628 9.00011998,18.3541282 9.00011998,18.3121406 L9.00011998,17.6660519 C9.00011998,15.8338939 10.591986,15 11.977086,15 C13.6811584,15 15,16.3338396 15,18.000651 C15,19.6674623 13.5899283,21 11.884857,21 Z" id="Fill-1"></path>
            </g>
        </g>
    </g>
</svg>