<svg xmlns="http://www.w3.org/2000/svg" width="25" height="43">
  <g id="Mockups" fill="none" fill-rule="evenodd">
    <g id="Home-v2" fill="#B3ADAD" transform="translate(-1192 -3149)">
      <g id="next-copy-2" transform="translate(1192 3149)">
        <path id="Right-Arrow" d="M.777 42.26c.505.484 1.196.74 1.86.74.664 0 1.354-.256 1.858-.74L24.23 23.29c.504-.484.77-1.122.77-1.787 0-.663-.266-1.301-.77-1.787L4.495.747a2.687 2.687 0 0 0-3.718 0 2.443 2.443 0 0 0 0 3.574l17.875 17.182L.777 38.686c-1.009.996-1.009 2.604 0 3.574z"/>
      </g>
    </g>
  </g>
</svg>