<?xml version="1.0" encoding="UTF-8"?>
<svg width="25px" height="18px" viewBox="0 0 25 18" version="1.1" xmlns="http://www.w3.org/2000/svg" xmlns:xlink="http://www.w3.org/1999/xlink">
    <!-- Generator: Sketch 46.2 (44496) - http://www.bohemiancoding.com/sketch -->
    <title>mail</title>
    <desc>Created with Sketch.</desc>
    <defs></defs>
    <g id="Footer" stroke="none" stroke-width="1" fill="none" fill-rule="evenodd">
        <g id="Footer---Mockup" transform="translate(-788.000000, -299.000000)" fill="#FFFFFF">
            <g id="Group-2" transform="translate(616.000000, 298.000000)">
                <g id="mail" transform="translate(172.000000, 1.000000)">
                    <path d="M22.809,17.999 L2,17.999 C0.898,17.999 0,17.105 0,15.999 L0,2.362 C0,1.261 0.898,0.362 2,0.362 L22.809,0.362 C23.91,0.362 24.809,1.261 24.809,2.362 L24.809,15.999 C24.809,17.105 23.91,17.999 22.809,17.999 Z M2,1.163 C1.34,1.163 0.801,1.702 0.801,2.362 L0.801,15.999 C0.801,16.663 1.34,17.198 2,17.198 L22.809,17.198 C23.473,17.198 24.008,16.663 24.008,15.999 L24.008,2.362 C24.008,1.702 23.473,1.163 22.809,1.163 L2,1.163 Z" id="Fill-1"></path>
                    <path d="M12.406,11.191 C11.871,11.191 11.34,11.015 10.938,10.663 L0.711,1.753 C0.547,1.605 0.527,1.355 0.676,1.187 C0.82,1.019 1.074,1.003 1.238,1.148 L11.461,10.058 C11.973,10.503 12.836,10.503 13.348,10.058 L23.566,1.151 C23.734,1.003 23.984,1.019 24.133,1.191 C24.277,1.355 24.262,1.608 24.094,1.753 L13.875,10.659 C13.469,11.015 12.938,11.191 12.406,11.191 Z" id="Fill-2"></path>
                </g>
            </g>
        </g>
    </g>
</svg>