<?xml version="1.0" encoding="UTF-8"?>
<svg width="21px" height="36px" viewBox="0 0 21 36" version="1.1" xmlns="http://www.w3.org/2000/svg" xmlns:xlink="http://www.w3.org/1999/xlink">
    <!-- Generator: Sketch 46.2 (44496) - http://www.bohemiancoding.com/sketch -->
    <title>Left Arrow</title>
    <desc>Created with Sketch.</desc>
    <defs></defs>
    <g id="Mockups" stroke="none" stroke-width="1" fill="none" fill-rule="evenodd" fill-opacity="0.5">
        <g id="Home" transform="translate(-1227.000000, -594.000000)" fill="#FFFFFF">
            <g id="Group-7" transform="translate(1107.000000, 594.000000)">
                <g id="Group-6" transform="translate(120.000000, 0.000000)">
                    <path d="M0.652783634,35.3801338 C1.07667816,35.7859858 1.65730212,36 2.21505808,36 C2.77281404,36 3.35232249,35.7859858 3.77593814,35.3801338 L20.3530031,19.499268 C20.7766187,19.093416 21,18.5590485 21,18.002772 C21,17.4475643 20.7766187,16.9131968 20.3530031,16.5060089 L3.77593814,0.625410285 C2.90555996,-0.208470095 1.52316181,-0.208470095 0.652783634,0.625410285 C-0.217594545,1.45929066 -0.217594545,2.78372035 0.652783634,3.61760073 L15.6675741,18.002772 L0.652783634,32.3879433 C-0.19472655,33.2218237 -0.19472655,34.5681625 0.652783634,35.3801338 Z" id="Left-Arrow" transform="translate(10.500000, 18.000000) rotate(-180.000000) translate(-10.500000, -18.000000) "></path>
                </g>
            </g>
        </g>
    </g>
</svg>