<?xml version="1.0" encoding="UTF-8"?>
<svg width="80px" height="80px" viewBox="0 0 80 80" version="1.1" xmlns="http://www.w3.org/2000/svg" xmlns:xlink="http://www.w3.org/1999/xlink">
    <!-- Generator: Sketch 46.2 (44496) - http://www.bohemiancoding.com/sketch -->
    <title>Group 3</title>
    <desc>Created with Sketch.</desc>
    <defs></defs>
    <g id="Mockups" stroke="none" stroke-width="1" fill="none" fill-rule="evenodd">
        <g id="Individual-Service-Page" transform="translate(-932.000000, -908.000000)" fill="#15498C">
            <g id="Group-2" transform="translate(122.000000, 902.000000)">
                <g id="circuit-copy-2" transform="translate(810.000000, 6.000000)">
                    <g id="Group-3">
                        <path d="M34.8628125,53.1521875 L50.1753125,53.1521875 L50.1753125,31.2771875 L34.8628125,31.2771875 L34.8628125,53.1521875 Z M73.7479688,40.949375 C75.4721875,40.949375 76.875,42.3523438 76.875,44.076875 C76.875,45.8014063 75.4721875,47.204375 73.7479688,47.204375 C72.02375,47.204375 70.6209375,45.8014063 70.6209375,44.076875 C70.6209375,42.3523438 72.02375,40.949375 73.7479688,40.949375 Z M70.6210937,62.9889063 C70.6210937,61.264375 72.0239062,59.8614063 73.748125,59.8614063 C75.4723438,59.8614063 76.875,61.264375 76.875,62.9889063 C76.875,64.7134375 75.4721875,66.1164063 73.7479688,66.1164063 C72.02375,66.1164063 70.6210937,64.7134375 70.6210937,62.9889063 Z M33.16375,76.875 C31.4395313,76.875 30.0367188,75.4720313 30.0367188,73.7475 C30.0367188,72.0229688 31.4395313,70.62 33.16375,70.62 C34.8879688,70.62 36.2907813,72.0229688 36.2907813,73.7475 C36.2907813,75.4720313 34.8879688,76.875 33.16375,76.875 Z M6.25203125,47.4257813 C4.5278125,47.4257813 3.125,46.0229688 3.125,44.2984375 C3.125,42.57375 4.5278125,41.170625 6.25203125,41.170625 C7.97625,41.170625 9.3790625,42.5735938 9.3790625,44.2984375 C9.37890625,46.0229688 7.97625,47.4257813 6.25203125,47.4257813 Z M6.25203125,66.3379688 C4.5278125,66.3379688 3.125,64.935 3.125,63.2104688 C3.125,61.4859375 4.5278125,60.0829687 6.25203125,60.0829687 C7.97625,60.0829687 9.3790625,61.4859375 9.3790625,63.2104688 C9.3790625,64.935 7.97625,66.3379688 6.25203125,66.3379688 Z M14.7184375,25.3860937 C14.7184375,23.6615625 16.12125,22.2585937 17.8454688,22.2585937 C19.5696875,22.2585937 20.9725,23.6615625 20.9725,25.3860937 C20.9725,27.1107812 19.5696875,28.5139062 17.8454688,28.5139062 C16.12125,28.5139062 14.7184375,27.1107812 14.7184375,25.3860937 Z M6.25859375,9.38015625 C4.534375,9.38015625 3.1315625,7.9771875 3.1315625,6.25265625 C3.1315625,4.52796875 4.534375,3.125 6.25859375,3.125 C7.9828125,3.125 9.385625,4.52796875 9.385625,6.2528125 C9.38546875,7.97734375 7.9828125,9.38015625 6.25859375,9.38015625 Z M73.7479688,3.125 C75.4721875,3.125 76.875,4.52796875 76.875,6.2528125 C76.875,7.97734375 75.4721875,9.3803125 73.7479688,9.3803125 C72.02375,9.3803125 70.6209375,7.97734375 70.6209375,6.2528125 C70.6210938,4.52796875 72.02375,3.125 73.7479688,3.125 Z M51.7673438,13.8184375 C53.4914063,13.8184375 54.8942188,15.2214062 54.8942188,16.9459375 C54.8942188,18.670625 53.4914063,20.07375 51.7673438,20.07375 C50.043125,20.07375 48.6403125,18.6707812 48.6403125,16.9459375 C48.6403125,15.22125 50.0429688,13.8184375 51.7673438,13.8184375 Z M73.7479688,22.0370312 C75.4721875,22.0370312 76.875,23.44 76.875,25.1648438 C76.875,26.889375 75.4721875,28.2923437 73.7479688,28.2923437 C72.02375,28.2923437 70.6209375,26.889375 70.6209375,25.1648438 C70.6210938,23.4401563 72.02375,22.0370312 73.7479688,22.0370312 Z M59.0104688,33.5940625 C59.8732813,33.5940625 60.5729688,32.894375 60.5729688,32.0315625 L60.5729688,26.8753125 L67.7357813,26.8753125 C68.4817188,29.49375 70.8935938,31.4171875 73.7479688,31.4171875 C77.1953125,31.4171875 80,28.6123438 80,25.1646875 C80,21.7170313 77.1954688,18.911875 73.7479688,18.911875 C70.7870313,18.911875 68.3021875,20.9817188 67.6592188,23.7501563 L59.0103125,23.7501563 C58.1475,23.7501563 57.4478125,24.4498438 57.4478125,25.3126563 L57.4478125,30.4689063 L53.3001563,30.4689063 L53.3001563,29.7145313 C53.3001563,28.8517188 52.6004688,28.1520313 51.7376563,28.1520313 L41.40625,28.1520313 L41.40625,18.508125 L45.7129688,18.508125 C46.4085938,21.2023438 48.8592188,23.1984375 51.7673438,23.1984375 C55.2146875,23.1984375 58.0192188,20.3934375 58.0192188,16.945625 C58.0192188,13.498125 55.2146875,10.693125 51.7673438,10.693125 C48.8592188,10.693125 46.4085938,12.6890625 45.7129688,15.383125 L39.84375,15.383125 C38.9809375,15.383125 38.28125,16.0828125 38.28125,16.945625 L38.28125,28.1520313 L34.9479688,28.1520313 L34.9479688,7.8125 L67.6929688,7.8125 C68.3876563,10.5078125 70.8389063,12.5051563 73.7479688,12.5051563 C77.1953125,12.5051563 80,9.7003125 80,6.25265625 C80,2.805 77.1954688,0 73.7479688,0 C70.8407813,0 68.3909375,1.99484375 67.694375,4.6875 L33.3854688,4.6875 C32.5226563,4.6875 31.8229688,5.3871875 31.8229688,6.25 L31.8229688,12.5 L26.875,12.5 L26.875,6.2528125 C26.875,5.39 26.1753125,4.6903125 25.3125,4.6903125 L12.3128125,4.6903125 C11.6173438,1.99609375 9.16671875,0 6.25859375,0 C2.81109375,0 0.0065625,2.805 0.0065625,6.2528125 C0.0065625,9.7003125 2.81109375,12.5053125 6.25859375,12.5053125 C9.16671875,12.5053125 11.6173438,10.509375 12.3129688,7.8153125 L23.75,7.8153125 L23.75,14.0625 C23.75,14.9253125 24.4496875,15.625 25.3125,15.625 L31.8229688,15.625 L31.7378125,35.0003125 L19.4079688,35.0003125 L19.4079688,31.4410938 C22.1017188,30.7453125 24.0975,28.294375 24.0975,25.3860938 C24.0975,21.9385938 21.2929688,19.1335938 17.8454688,19.1335938 C14.3979688,19.1335938 11.5934375,21.9384375 11.5934375,25.3860938 C11.5934375,28.294375 13.5890625,30.7454688 16.2829688,31.4410938 L16.2829688,36.5628125 C16.2829688,37.425625 16.9826563,38.1253125 17.8454688,38.1253125 L31.7378125,38.1253125 L31.7378125,42.8128125 L12.3242188,42.8128125 C11.655625,40.08 9.1875,38.045625 6.25203125,38.045625 C2.80453125,38.045625 0,40.850625 0,44.2984375 C0,47.7459375 2.80453125,50.5509375 6.25203125,50.5509375 C9.1321875,50.5509375 11.5623438,48.5926563 12.2845313,45.9379688 L24.53125,45.9379688 L24.53125,62.34375 L12.4425,62.34375 C12.0190625,59.3051563 9.40515625,56.9579688 6.251875,56.9579688 C2.80453125,56.9579688 0,59.7628125 0,63.2104688 C0,66.658125 2.80453125,69.4629688 6.25203125,69.4629688 C8.90328125,69.4629688 11.1726563,67.8032813 12.0803125,65.46875 L26.09375,65.46875 C26.9565625,65.46875 27.65625,64.7690625 27.65625,63.90625 L27.65625,45.9378125 L31.7378125,45.9378125 L31.7378125,54.7146875 C31.7378125,55.5775 32.4375,56.2771875 33.3003125,56.2771875 L38.4895313,56.2771875 L38.4895313,63.02125 C38.4895313,63.8840625 39.1892188,64.58375 40.0520313,64.58375 L44.84375,64.58375 L44.84375,72.448125 L39.2790625,72.448125 C38.679375,69.6221875 36.165625,67.4951563 33.16375,67.4951563 C29.7164063,67.4951563 26.9117188,70.3 26.9117188,73.7476563 C26.9117188,77.1953125 29.7164063,80 33.16375,80 C35.97625,80 38.3603125,78.1328125 39.1432813,75.573125 L46.40625,75.573125 C47.2690625,75.573125 47.96875,74.8734375 47.96875,74.010625 L47.96875,63.02125 C47.96875,62.1584375 47.2690625,61.45875 46.40625,61.45875 L41.6145313,61.45875 L41.6145313,56.2771875 L51.7378125,56.2771875 C52.600625,56.2771875 53.3003125,55.5775 53.3003125,54.7146875 L53.3003125,54.4021875 L56.6145313,54.4021875 L56.6145313,74.0628125 C56.6145313,74.925625 57.3142188,75.6253125 58.1770313,75.6253125 L74.21875,75.6253125 C75.0815625,75.6253125 75.78125,74.925625 75.78125,74.0628125 L75.78125,68.9 C78.233125,68.0540625 80,65.7246875 80,62.98875 C80,59.54125 77.1954688,56.73625 73.7479688,56.73625 C70.3004688,56.73625 67.4959375,59.5410938 67.4959375,62.98875 C67.4959375,66.06375 69.7276563,68.625625 72.6560938,69.14375 L72.6560938,72.5001563 L59.739375,72.5001563 L59.739375,52.8396875 C59.739375,51.976875 59.0396875,51.2771875 58.176875,51.2771875 L53.3001563,51.2771875 L53.3001563,41.041875 L57.4476563,41.041875 L57.4476563,44.6875 C57.4476563,45.5503125 58.1473438,46.25 59.0101563,46.25 L67.8859375,46.25 C68.7707813,48.629375 71.0642188,50.3292188 73.7478125,50.3292188 C77.1951563,50.3292188 79.9998438,47.524375 79.9998438,44.0767188 C79.9998438,40.6290625 77.1953125,37.8242188 73.7478125,37.8242188 C70.6239063,37.8242188 68.0279688,40.1273438 67.568125,43.1248438 L60.5726563,43.1248438 L60.5726563,39.4792188 C60.5726563,38.6164063 59.8729688,37.9167188 59.0101563,37.9167188 L53.3001563,37.9167188 L53.3001563,33.5939063 L59.0104688,33.5939063 L59.0104688,33.5940625 L59.0104688,33.5940625 Z" id="Fill-1"></path>
                    </g>
                </g>
            </g>
        </g>
    </g>
</svg>