<?xml version="1.0" encoding="UTF-8"?>
<svg width="84px" height="66px" viewBox="0 0 84 66" version="1.1" xmlns="http://www.w3.org/2000/svg" xmlns:xlink="http://www.w3.org/1999/xlink">
    <!-- Generator: Sketch 46.2 (44496) - http://www.bohemiancoding.com/sketch -->
    <title>Fill 1</title>
    <desc>Created with Sketch.</desc>
    <defs></defs>
    <g id="Mockups" stroke="none" stroke-width="1" fill="none" fill-rule="evenodd">
        <g id="Individual-Service-Page" transform="translate(-526.000000, -910.000000)" fill="#15498C">
            <g id="cable-reel" transform="translate(526.000000, 910.000000)">
                <g id="Group-3">
                    <path d="M77.4375,62.7 L80.71875,62.7 L80.71875,26.4 L77.4375,26.4 L77.4375,62.7 Z M70.875,33.66 L74.15625,33.66 L74.15625,23.76 L70.875,23.76 L70.875,33.66 Z M64.3125,53.295 L67.59375,53.295 L67.59375,3.3 L64.3125,3.3 L64.3125,53.295 Z M57.7591875,48.0975 L61.03125,36.550965 L61.03125,48.0975 L57.7591875,48.0975 Z M16.40625,53.295 L19.6875,53.295 L19.6875,3.3 L16.40625,3.3 L16.40625,53.295 Z M9.84375,33.66 L13.125,33.66 L13.125,23.76 L9.84375,23.76 L9.84375,33.66 Z M3.28125,62.7 L6.5625,62.7 L6.5625,26.4 L3.28125,26.4 L3.28125,62.7 Z M26.1940547,8.4975 L22.96875,19.879035 L22.96875,8.4975 L26.1940547,8.4975 Z M22.96875,31.919415 L29.6060625,8.4975 L32.7565547,8.4975 L22.96875,43.037115 L22.96875,31.919415 Z M24.9466875,48.0975 L36.1685625,8.4975 L39.3190547,8.4975 L28.0971797,48.0975 L24.9466875,48.0975 Z M31.5091875,48.0975 L42.7310625,8.4975 L45.8815547,8.4975 L34.6596797,48.0975 L31.5091875,48.0975 Z M38.0716875,48.0975 L49.2935625,8.4975 L52.4440547,8.4975 L41.2221797,48.0975 L38.0716875,48.0975 Z M44.6341875,48.0975 L55.8560625,8.4975 L59.0065547,8.4975 L47.7846797,48.0975 L44.6341875,48.0975 Z M51.1966875,48.0975 L61.03125,13.393215 L61.03125,24.51075 L54.3471797,48.0975 L51.1966875,48.0975 Z M82.359375,23.1 L77.4375,23.1 L77.4375,22.11 C77.4375,21.19887 76.7029922,20.46 75.796875,20.46 L70.875,20.46 L70.875,1.65 C70.875,0.73887 70.1404922,0 69.234375,0 L62.671875,0 C61.7657578,0 61.03125,0.73887 61.03125,1.65 L61.03125,5.1975 L22.96875,5.1975 L22.96875,1.65 C22.96875,0.73887 22.2342422,0 21.328125,0 L14.765625,0 C13.8595078,0 13.125,0.73887 13.125,1.65 L13.125,20.46 L8.203125,20.46 C7.29700781,20.46 6.5625,21.19887 6.5625,22.11 L6.5625,23.1 L1.640625,23.1 C0.734507812,23.1 0,23.83887 0,24.75 L0,64.35 C0,65.26113 0.734507812,66 1.640625,66 L14.765625,66 C15.6717422,66 16.40625,65.26113 16.40625,64.35 C16.40625,63.43887 15.6717422,62.7 14.765625,62.7 L9.84375,62.7 L9.84375,36.96 L13.125,36.96 L13.125,54.945 C13.125,55.85613 13.8595078,56.595 14.765625,56.595 L21.328125,56.595 C22.2342422,56.595 22.96875,55.85613 22.96875,54.945 L22.96875,51.3975 L34.5351562,51.3975 L34.5351562,54.45 C34.5351562,55.7733 35.0470312,57.01575 35.9772656,57.94965 C36.9058594,58.8852 38.14125,59.4 39.4570312,59.4 L54.0585937,59.4 C54.9609375,59.40165 55.6975781,60.1425 55.6992187,61.05 C55.6975781,61.9575 54.9609375,62.69835 54.0585937,62.7 L34.9928906,62.7 C34.0872656,62.7 33.3522656,63.44085 33.3522656,64.35 C33.3522656,65.2608 34.0872656,66 34.9928906,66 L54.0585937,66 C55.374375,66 56.6097656,65.4852 57.5383594,64.54965 C58.4685937,63.61575 58.9804687,62.37165 58.9804687,61.05 C58.9804687,59.726535 58.4685937,58.48425 57.5383594,57.55035 C56.6097656,56.6148 55.374375,56.1 54.0585937,56.1 L39.4570312,56.1 C38.5546875,56.09835 37.8180469,55.3575 37.8164062,54.45 L37.8164062,51.3975 L61.03125,51.3975 L61.03125,54.945 C61.03125,55.85613 61.7657578,56.595 62.671875,56.595 L69.234375,56.595 C70.1404922,56.595 70.875,55.85613 70.875,54.945 L70.875,36.96 L74.15625,36.96 L74.15625,62.7 L69.234375,62.7 C68.3282578,62.7 67.59375,63.43887 67.59375,64.35 C67.59375,65.26113 68.3282578,66 69.234375,66 L82.359375,66 C83.2654922,66 84,65.26113 84,64.35 L84,24.75 C84,23.83887 83.2654922,23.1 82.359375,23.1 L82.359375,23.1 Z" id="Fill-1"></path>
                </g>
            </g>
        </g>
    </g>
</svg>