<svg xmlns="http://www.w3.org/2000/svg" width="45" height="37">
  <g id="Mockups" fill="none" fill-rule="evenodd">
    <g id="Home-&gt;-Technology-Service-&gt;-Hover" fill="#FFF" transform="translate(-196 -177)">
      <g id="Group" transform="translate(191 30)">
        <g id="Audio-Visual-Technology-" transform="translate(5 147)">
          <path id="Fill-1" d="M44.676 19.696c0 .793-.648 1.441-1.44 1.441h-4.997c-.48 0-.937-.24-1.2-.648l-3.171-4.9-3.795 20.272c-.12.673-.72 1.129-1.393 1.129h-.025c-.672 0-1.273-.432-1.417-1.105L21.57 8.695l-3.578 18.591a1.429 1.429 0 0 1-1.297 1.177 1.43 1.43 0 0 1-1.466-.96l-4.972-14.076-2.45 6.75a1.423 1.423 0 0 1-1.345.936h-5.02A1.445 1.445 0 0 1 0 19.673c0-.793.648-1.442 1.441-1.442H5.43l3.48-9.608c.216-.576.745-.96 1.345-.96s1.153.408 1.346.984l4.539 12.875 3.94-20.393C20.2.456 20.8 0 21.473 0c.672 0 1.273.456 1.417 1.105l5.644 27.094 3.123-16.718a1.466 1.466 0 0 1 1.129-1.152 1.448 1.448 0 0 1 1.489.624l4.708 7.278h4.251c.793.024 1.441.672 1.441 1.465z"/>
        </g>
      </g>
    </g>
  </g>
</svg>
