<svg xmlns="http://www.w3.org/2000/svg" width="58" height="58">
  <g id="Mockups" fill="none" fill-rule="evenodd">
    <g id="Home-&gt;-Electrical-Service-&gt;-Hover" fill="#FFF" transform="translate(-193 -171)">
      <g id="Group-2" transform="translate(193 104)">
        <g id="Group">
          <g id="circuit" transform="translate(0 67)">
            <g id="Group-3">
              <path id="Fill-1" d="M25.276 38.535h11.101V22.676H25.276v15.86zm28.191-8.847a2.27 2.27 0 0 1 2.267 2.268 2.27 2.27 0 0 1-2.267 2.267 2.27 2.27 0 0 1-2.267-2.267 2.27 2.27 0 0 1 2.267-2.268zM51.2 45.667a2.27 2.27 0 0 1 2.267-2.267 2.27 2.27 0 0 1 2.267 2.267 2.27 2.27 0 0 1-2.267 2.267 2.27 2.27 0 0 1-2.267-2.267zM24.044 55.734a2.27 2.27 0 0 1-2.267-2.267 2.27 2.27 0 0 1 2.267-2.267 2.27 2.27 0 0 1 2.267 2.267 2.27 2.27 0 0 1-2.267 2.267zM4.533 34.384a2.27 2.27 0 0 1-2.267-2.268 2.27 2.27 0 0 1 2.267-2.267A2.27 2.27 0 0 1 6.8 32.116a2.27 2.27 0 0 1-2.267 2.268zm0 13.711a2.27 2.27 0 0 1-2.267-2.267 2.27 2.27 0 0 1 2.267-2.268A2.27 2.27 0 0 1 6.8 45.828a2.27 2.27 0 0 1-2.267 2.267zm6.138-29.69a2.27 2.27 0 0 1 2.267-2.268 2.27 2.27 0 0 1 2.267 2.268 2.27 2.27 0 0 1-2.267 2.268 2.27 2.27 0 0 1-2.267-2.268zM4.537 6.8A2.27 2.27 0 0 1 2.27 4.533a2.27 2.27 0 0 1 2.267-2.267 2.27 2.27 0 0 1 2.268 2.267 2.27 2.27 0 0 1-2.268 2.268zm48.93-4.535a2.27 2.27 0 0 1 2.267 2.267A2.27 2.27 0 0 1 53.467 6.8 2.27 2.27 0 0 1 51.2 4.533a2.27 2.27 0 0 1 2.267-2.267zm-15.936 7.752a2.27 2.27 0 0 1 2.267 2.268 2.27 2.27 0 0 1-2.267 2.267 2.27 2.27 0 0 1-2.267-2.267 2.27 2.27 0 0 1 2.267-2.268zm15.936 5.959a2.27 2.27 0 0 1 2.267 2.268 2.27 2.27 0 0 1-2.267 2.267 2.27 2.27 0 0 1-2.267-2.267 2.27 2.27 0 0 1 2.267-2.268zm-10.684 8.379c.625 0 1.132-.508 1.132-1.133v-3.738h5.193a4.54 4.54 0 0 0 4.36 3.292A4.537 4.537 0 0 0 58 18.243c0-2.5-2.033-4.533-4.533-4.533a4.54 4.54 0 0 0-4.414 3.508h-6.27c-.626 0-1.133.507-1.133 1.133v3.738h-3.007v-.547c0-.626-.508-1.133-1.133-1.133h-7.49v-6.992h3.122a4.541 4.541 0 0 0 4.39 3.4 4.537 4.537 0 0 0 4.532-4.532c0-2.5-2.033-4.533-4.533-4.533a4.54 4.54 0 0 0-4.39 3.4h-4.254c-.626 0-1.133.507-1.133 1.133v8.124h-2.417V5.664h23.74a4.54 4.54 0 0 0 4.39 3.402c2.5 0 4.533-2.033 4.533-4.533C58 2.033 55.967 0 53.467 0a4.541 4.541 0 0 0-4.389 3.398H24.204c-.625 0-1.132.508-1.132 1.133v4.532h-3.588v-4.53c0-.625-.507-1.133-1.132-1.133H8.927A4.54 4.54 0 0 0 4.537 0 4.538 4.538 0 0 0 .005 4.533c0 2.5 2.033 4.533 4.532 4.533a4.54 4.54 0 0 0 4.39-3.4h8.292v4.53c0 .625.507 1.132 1.133 1.132h4.72l-.062 14.047h-8.94v-2.58a4.541 4.541 0 0 0 3.4-4.39c0-2.5-2.033-4.533-4.532-4.533a4.538 4.538 0 0 0-4.533 4.533 4.541 4.541 0 0 0 3.4 4.39v3.713c0 .626.507 1.133 1.133 1.133H23.01v3.398H8.935a4.54 4.54 0 0 0-4.402-3.456A4.538 4.538 0 0 0 0 32.116c0 2.5 2.033 4.533 4.533 4.533a4.54 4.54 0 0 0 4.373-3.344h8.88v11.894H9.02a4.54 4.54 0 0 0-4.488-3.904A4.538 4.538 0 0 0 0 45.828c0 2.5 2.033 4.533 4.533 4.533a4.54 4.54 0 0 0 4.225-2.896h10.16c.626 0 1.133-.507 1.133-1.133V33.305h2.959v6.363c0 .626.507 1.133 1.133 1.133h3.762v4.89c0 .625.507 1.132 1.133 1.132h3.474v5.702h-4.035a4.54 4.54 0 0 0-4.433-3.591 4.538 4.538 0 0 0-4.533 4.533c0 2.5 2.033 4.533 4.533 4.533a4.54 4.54 0 0 0 4.335-3.21h5.266c.625 0 1.132-.507 1.132-1.132V45.69c0-.625-.507-1.132-1.132-1.132H30.17V40.8h7.339c.625 0 1.133-.507 1.133-1.133v-.226h2.403v14.254c0 .625.507 1.132 1.132 1.132h11.63c.626 0 1.133-.507 1.133-1.132v-3.743A4.54 4.54 0 0 0 58 45.666c0-2.5-2.033-4.533-4.533-4.533a4.538 4.538 0 0 0-4.532 4.533 4.54 4.54 0 0 0 3.74 4.462v2.434h-9.364V38.309c0-.626-.507-1.133-1.133-1.133h-3.535v-7.42h3.007v2.642c0 .626.507 1.133 1.132 1.133h6.435a4.54 4.54 0 0 0 4.25 2.958c2.5 0 4.533-2.034 4.533-4.533 0-2.5-2.033-4.533-4.533-4.533a4.54 4.54 0 0 0-4.48 3.843h-5.072v-2.644c0-.625-.507-1.132-1.133-1.132h-4.14v-3.134h4.14z"/>
            </g>
            <path id="Fill-4" d="M33.793 25h-4.586C28.54 25 28 25.448 28 26s.54 1 1.207 1h4.586C34.46 27 35 26.552 35 26s-.54-1-1.207-1"/>
            <path id="Fill-5" d="M33.793 30h-4.586C28.54 30 28 30.448 28 31s.54 1 1.207 1h4.586C34.46 32 35 31.552 35 31s-.54-1-1.207-1"/>
            <path id="Fill-6" d="M33.793 34h-4.586C28.54 34 28 34.448 28 35s.54 1 1.207 1h4.586C34.46 36 35 35.552 35 35s-.54-1-1.207-1"/>
          </g>
        </g>
      </g>
    </g>
  </g>
</svg>
