<svg xmlns="http://www.w3.org/2000/svg" xmlns:xlink="http://www.w3.org/1999/xlink" width="41" height="54">
  <defs>
    <path id="path-1" d="M0 .48v11.718h10.71V.48z"/>
  </defs>
  <g id="Mockups" fill="none" fill-rule="evenodd">
    <g id="Home-&gt;-Electrical-Service-&gt;-Hover" transform="translate(-201 -247)">
      <g id="Group-2" transform="translate(193 104)">
        <g id="Group">
          <g id="light-bulb" transform="translate(8 143)">
            <path id="Fill-1" fill="#FFF" d="M15.803 47c-.443 0-.803-.45-.803-.999 0-.551.36-1.001.803-1.001h9.391c.444 0 .806.45.806 1.001 0 .55-.362.999-.806.999h-9.39z"/>
            <path id="Fill-2" fill="#FFF" d="M15.813 50c-.448 0-.813-.457-.813-1.005 0-.548.365-.995.813-.995h7.366c.448 0 .821.447.821.995S23.627 50 23.179 50h-7.366z"/>
            <path id="Fill-3" fill="#FFF" d="M19 38.214a.788.788 0 0 1-.797.786.788.788 0 0 1-.798-.786c0-3.31-.097-5.794-.562-8.086-.462-2.269-1.284-4.368-2.74-6.965a.768.768 0 0 1 .309-1.065.808.808 0 0 1 1.082.304c1.553 2.749 2.432 4.993 2.919 7.42.48 2.389.587 4.962.587 8.392z"/>
            <path id="Fill-4" fill="#FFF" d="M23.594 38.214a.787.787 0 0 1-.797.786.787.787 0 0 1-.797-.786c.008-3.429.106-5.993.593-8.388.489-2.427 1.367-4.67 2.919-7.42a.788.788 0 0 1 1.08-.303.78.78 0 0 1 .31 1.065c-1.463 2.596-2.285 4.695-2.749 6.963-.462 2.291-.56 4.775-.56 8.083z"/>
            <path id="Fill-5" fill="#FFF" d="M14.503 23.12c-.38-.1-.59-.42-.47-.723.127-.298.537-.46.917-.368.515.128.953.304 1.356.46l.046.019c.633.25 1.162.449 1.557.198l.902-.577c.313-.199.775-.165 1.028.082.254.244.2.605-.112.804l-.895.576c-1.124.712-2.041.367-3.144-.07l-.038-.01a9.012 9.012 0 0 0-1.147-.392z"/>
            <path id="Fill-6" fill="#FFF" d="M20 4.143c0 .476-.447.857-.995.857S18 4.62 18 4.143V.848C18 .381 18.457 0 19.005 0c.548 0 .995.38.995.848v3.295z"/>
            <path id="Fill-7" fill="#FFF" d="M23.044 22.028c.387-.098.797.07.923.368.118.303-.09.623-.477.721-.402.099-.79.25-1.148.39l-.029.017c-1.102.431-2.027.781-3.144.064l-.9-.569c-.313-.198-.359-.559-.105-.805.253-.244.707-.284 1.02-.086l.902.577c.395.25.923.052 1.564-.199l.038-.017c.408-.157.849-.333 1.356-.46z"/>
            <path id="Fill-8" fill="#FFF" d="M30.609 13.53C33.319 16.325 35 20.2 35 24.475a15.803 15.803 0 0 1-2.883 9.12c-1.552 2.186-2.803 3.62-3.78 4.725-1.76 2.01-2.523 2.884-2.523 5.813a.857.857 0 0 1-.848.867h-9.864a.856.856 0 0 1-.848-.867c0-2.902-.781-3.785-2.531-5.76-.986-1.106-2.255-2.54-3.842-4.777a15.532 15.532 0 0 1-2.143-4.326A15.846 15.846 0 0 1 5 24.475c0-2.098.402-4.098 1.14-5.921l.017-.034a15.444 15.444 0 0 1 3.234-4.99 15.061 15.061 0 0 1 4.872-3.354A14.512 14.512 0 0 1 20 9c2.024 0 3.96.414 5.737 1.176 1.835.779 3.49 1.93 4.872 3.354zm2.7 10.945c0-3.797-1.49-7.23-3.892-9.715a13.423 13.423 0 0 0-4.323-2.983A12.876 12.876 0 0 0 20 10.733c-1.81 0-3.535.371-5.094 1.044a13.376 13.376 0 0 0-4.323 2.983 13.754 13.754 0 0 0-2.874 4.414l-.017.043a13.997 13.997 0 0 0-1.012 5.258c0 1.485.232 2.92.652 4.255a14.116 14.116 0 0 0 1.903 3.84c1.528 2.15 2.771 3.547 3.733 4.636v.01c1.868 2.112 2.803 3.166 2.948 6.051h8.227c.145-2.903 1.063-3.948 2.94-6.097.944-1.078 2.154-2.46 3.67-4.6a13.816 13.816 0 0 0 1.904-3.83 14.25 14.25 0 0 0 .652-4.265z"/>
            <path id="Fill-9" fill="#FFF" d="M16.943 54c-.52 0-.943-.45-.943-1.001 0-.552.423-.999.943-.999h6.104c.53 0 .953.447.953.999 0 .551-.423 1.001-.953 1.001h-6.104z"/>
            <path id="Fill-10" fill="#FFF" d="M29.423 6.532c-.21.448-.676.6-1.042.344-.364-.249-.49-.82-.279-1.268l1.484-3.141c.2-.446.668-.6 1.032-.342.366.256.49.83.28 1.265l-1.475 3.142z"/>
            <g id="Group-14" transform="translate(0 2)">
              <mask id="mask-2" fill="#fff">
                <use xlink:href="#path-1"/>
              </mask>
              <path id="Fill-11" fill="#FFF" d="M10.607 3.779c.214.41.087.931-.287 1.159-.365.234-.844.096-1.058-.314L7.742 1.75c-.215-.399-.079-.923.286-1.157.375-.236.851-.096 1.067.312l1.512 2.873z" mask="url(#mask-2)"/>
              <path id="Fill-13" fill="#FFF" d="M3.795 10.614c.367.225.493.749.287 1.157-.216.41-.692.548-1.067.314L.389 10.43c-.373-.236-.501-.758-.285-1.168.214-.407.692-.548 1.065-.312l2.626 1.663z" mask="url(#mask-2)"/>
            </g>
            <path id="Fill-15" fill="#FFF" d="M37.39 13.899c-.436.208-1.009.085-1.265-.28-.258-.365-.104-.832.342-1.033l3.141-1.484c.449-.21 1.02-.085 1.268.279.256.366.104.831-.344 1.042l-3.142 1.476z"/>
            <path id="Fill-16" fill="#FFF" d="M11.623 25.836c.195.429-.019.923-.484 1.102-.462.171-.989-.024-1.186-.452a11.178 11.178 0 0 1-.711-2.118A10.388 10.388 0 0 1 9 22.154c0-.462.408-.847.918-.847.5 0 .908.385.908.847 0 .658.064 1.29.204 1.888.128.615.332 1.223.593 1.794zm0-7.375c-.185.428-.723.623-1.186.444-.465-.18-.678-.665-.484-1.094.306-.665.679-1.298 1.103-1.88l.01-.008h-.01c.446-.598.937-1.153 1.483-1.659.538-.494 1.14-.956 1.798-1.358v-.01c.63-.382 1.325-.734 2.047-1.016.732-.28 1.5-.504 2.307-.657a13.141 13.141 0 0 1 2.4-.223c.501 0 .909.376.909.847 0 .461-.408.838-.908.838-.714 0-1.4.059-2.047.179-.679.127-1.336.315-1.957.556-.603.238-1.176.53-1.731.87a10.6 10.6 0 0 0-1.53 1.162c-.463.438-.89.906-1.26 1.411a9.375 9.375 0 0 0-.944 1.598z"/>
          </g>
        </g>
      </g>
    </g>
  </g>
</svg>
