<svg xmlns="http://www.w3.org/2000/svg" width="47" height="51">
  <g id="Mockups" fill="none" fill-rule="evenodd">
    <g id="Home-&gt;-Technology-Service-&gt;-Hover" fill="#FFF" transform="translate(-199 -242)">
      <g id="Group" transform="translate(191 30)">
        <g id="office" transform="translate(8 212)">
          <path id="Fill-1" d="M9.182 13.867h1.636v-3.734H9.182v3.734zM11.909 16H8.091A1.08 1.08 0 0 1 7 14.933V9.067A1.08 1.08 0 0 1 8.09 8h3.82c.6 0 1.09.478 1.09 1.067v5.866A1.08 1.08 0 0 1 11.91 16z"/>
          <path id="Fill-2" d="M17.182 13.867h1.636v-3.734h-1.636v3.734zM19.909 16h-3.818A1.08 1.08 0 0 1 15 14.933V9.067A1.08 1.08 0 0 1 16.09 8h3.82c.602 0 1.09.478 1.09 1.067v5.866A1.08 1.08 0 0 1 19.91 16z"/>
          <path id="Fill-3" d="M9.182 23.867h1.636v-3.734H9.182v3.734zM11.909 26H8.091A1.08 1.08 0 0 1 7 24.933v-5.866A1.08 1.08 0 0 1 8.09 18h3.82c.601 0 1.09.478 1.09 1.067v5.866A1.08 1.08 0 0 1 11.91 26z"/>
          <path id="Fill-4" d="M17.182 23.867h1.636v-3.734h-1.636v3.734zM19.909 26h-3.818A1.08 1.08 0 0 1 15 24.933v-5.866A1.08 1.08 0 0 1 16.09 18h3.82c.602 0 1.09.478 1.09 1.067v5.866A1.08 1.08 0 0 1 19.91 26z"/>
          <path id="Fill-5" d="M9.182 33.867h1.636v-3.734H9.182v3.734zM11.909 36H8.091A1.08 1.08 0 0 1 7 34.933v-5.866A1.08 1.08 0 0 1 8.09 28h3.82c.601 0 1.09.478 1.09 1.067v5.866A1.08 1.08 0 0 1 11.91 36z"/>
          <path id="Fill-6" d="M17.182 33.867h1.636v-3.734h-1.636v3.734zM19.909 36h-3.818A1.08 1.08 0 0 1 15 34.933v-5.866A1.08 1.08 0 0 1 16.09 28h3.82c.602 0 1.09.478 1.09 1.067v5.866A1.08 1.08 0 0 1 19.91 36z"/>
          <path id="Fill-7" d="M9.182 44.867h1.636v-3.734H9.182v3.734zM11.909 47H8.091A1.08 1.08 0 0 1 7 45.933v-5.866A1.08 1.08 0 0 1 8.09 39h3.82c.601 0 1.09.478 1.09 1.067v5.866A1.08 1.08 0 0 1 11.91 47z"/>
          <path id="Fill-8" d="M17.182 44.867h1.636v-3.734h-1.636v3.734zM19.909 47h-3.818A1.08 1.08 0 0 1 15 45.933v-5.866A1.08 1.08 0 0 1 16.09 39h3.82c.602 0 1.09.478 1.09 1.067v5.866A1.08 1.08 0 0 1 19.91 47z"/>
          <path id="Fill-9" d="M38.009 44h-.018A.996.996 0 0 1 37 43c0-.552.444-1 .991-1h.018c.547 0 .991.448.991 1s-.444 1-.991 1"/>
          <path id="Fill-10" d="M38.009 20h-.018A.996.996 0 0 1 37 19c0-.552.444-1 .991-1h.018c.547 0 .991.448.991 1s-.444 1-.991 1"/>
          <path id="Fill-11" d="M38.009 25h-.018A.996.996 0 0 1 37 24c0-.552.444-1 .991-1h.018c.547 0 .991.448.991 1s-.444 1-.991 1"/>
          <path id="Fill-12" d="M38.009 29h-.018A.996.996 0 0 1 37 28c0-.552.444-1 .991-1h.018c.547 0 .991.448.991 1s-.444 1-.991 1"/>
          <path id="Fill-13" d="M38.009 35h-.018A.996.996 0 0 1 37 34c0-.552.444-1 .991-1h.018c.547 0 .991.448.991 1s-.444 1-.991 1"/>
          <g id="Group-17">
            <path id="Fill-14" d="M37.966 39.257h-.02a1.045 1.045 0 0 1-1.048-1.041c0-.575.47-1.041 1.049-1.041h.019c.58 0 1.049.466 1.049 1.04 0 .575-.47 1.042-1.05 1.042"/>
            <path id="Fill-16" d="M40.885 48.918H24.51v-4.753h9.83c.579 0 1.049-.466 1.049-1.04 0-.575-.47-1.041-1.05-1.041H24.51v-2.827h9.83c.579 0 1.049-.466 1.049-1.041s-.47-1.041-1.05-1.041H24.51v-2.827h9.83c.579 0 1.049-.466 1.049-1.04 0-.576-.47-1.042-1.05-1.042H24.51V29.44h9.83c.579 0 1.049-.466 1.049-1.04 0-.575-.47-1.041-1.05-1.041H24.51V24.53h9.83c.579 0 1.049-.467 1.049-1.041 0-.575-.47-1.041-1.05-1.041H24.51v-2.827h9.83c.579 0 1.049-.466 1.049-1.041s-.47-1.04-1.05-1.04H24.51v-2.858h16.374v34.235zM22.413 13.642v35.276h-17V2.356l17 3.984v7.302zm23.444 35.276h-2.874V13.642c0-.574-.47-1.04-1.049-1.04H24.511V5.515c0-.482-.334-.902-.808-1.013L4.605.028a1.06 1.06 0 0 0-.893.197 1.037 1.037 0 0 0-.398.816v47.877H1.05c-.58 0-1.05.466-1.05 1.042S.47 51 1.05 51h44.807c.58 0 1.05-.466 1.05-1.04 0-.576-.47-1.042-1.05-1.042z"/>
          </g>
        </g>
      </g>
    </g>
  </g>
</svg>
