<svg xmlns="http://www.w3.org/2000/svg" width="38" height="47">
  <g id="Mockups" fill="none" fill-rule="evenodd">
    <g id="Home-&gt;-Technology-Service-&gt;-Hover" fill="#FFF" transform="translate(-199 -104)">
      <g id="Group" transform="translate(191 30)">
        <g id="fire-copy" transform="translate(8 74)">
          <path id="Fill-1" d="M35.235 43.413a.834.834 0 0 1-.835.832H3.6a.834.834 0 0 1-.835-.832V3.587c0-.459.374-.832.835-.832h30.8c.46 0 .835.373.835.832v39.826zM34.4 0H3.6C1.615 0 0 1.61 0 3.587v39.826A3.597 3.597 0 0 0 3.6 47h30.8c1.985 0 3.6-1.61 3.6-3.587V3.587A3.597 3.597 0 0 0 34.4 0z"/>
          <path id="Fill-2" d="M9.249 13.863c.166.092.364.137.595.137.23 0 .43-.045.595-.137.166-.091.25-.22.25-.388V10.65h1.634a.425.425 0 0 0 .378-.197.797.797 0 0 0 .13-.449.811.811 0 0 0-.135-.47.429.429 0 0 0-.374-.197h-1.634v-1.85h2.803a.419.419 0 0 0 .374-.219A1 1 0 0 0 14 6.733a.99.99 0 0 0-.13-.514.415.415 0 0 0-.379-.219H9.736a.953.953 0 0 0-.52.137.434.434 0 0 0-.216.388v6.95c0 .168.083.297.249.388"/>
          <path id="Fill-3" d="M14.295 13.863c.196.092.431.137.705.137.273 0 .508-.045.705-.137.196-.091.295-.22.295-.388v-6.96c0-.168-.098-.296-.295-.384A1.726 1.726 0 0 0 15 6a1.73 1.73 0 0 0-.705.131c-.197.088-.295.216-.295.383v6.96c0 .169.098.298.295.39"/>
          <path id="Fill-4" d="M19.538 7.476h.977c.289 0 .51.078.66.234.152.155.227.414.227.776 0 .362-.075.62-.227.776-.15.155-.371.233-.66.233h-.977V7.476zM18.227 13.8c.151.09.332.136.542.136.21 0 .391-.045.543-.136a.426.426 0 0 0 .227-.385v-2.616h.65l1.351 2.887c.1.21.263.315.494.315.23 0 .448-.094.655-.282.207-.188.311-.387.311-.597a.354.354 0 0 0-.05-.196l-1.203-2.399c.796-.34 1.194-1.074 1.194-2.203C22.94 6.774 22.132 6 20.515 6h-2.042a.432.432 0 0 0-.34.152.526.526 0 0 0-.133.358v6.904c0 .166.075.295.227.385z"/>
          <path id="Fill-5" d="M24.212 13.863a.919.919 0 0 0 .51.137h3.78a.406.406 0 0 0 .37-.219.993.993 0 0 0 .128-.514c0-.212-.044-.39-.133-.536-.088-.146-.21-.22-.366-.22h-2.845v-1.86h1.592a.415.415 0 0 0 .372-.197.808.808 0 0 0 .127-.448.823.823 0 0 0-.132-.471.419.419 0 0 0-.367-.197h-1.592v-1.85h2.845c.156 0 .278-.073.366-.219.089-.145.133-.324.133-.536 0-.197-.042-.368-.127-.514A.406.406 0 0 0 28.5 6h-3.78a.921.921 0 0 0-.509.137.436.436 0 0 0-.212.388v6.95c0 .168.07.297.212.388"/>
          <path id="Fill-6" d="M19 38.285c-5.054 0-9.166-3.941-9.166-8.785s4.112-8.785 9.166-8.785 9.166 3.941 9.166 8.785-4.112 8.785-9.166 8.785zM19 18c-6.617 0-12 5.159-12 11.5S12.383 41 19 41s12-5.159 12-11.5S25.617 18 19 18z"/>
          <path id="Fill-7" d="M19 33.136A4.14 4.14 0 0 1 14.864 29 4.14 4.14 0 0 1 19 24.864 4.14 4.14 0 0 1 23.136 29 4.14 4.14 0 0 1 19 33.136zM19 22c-3.86 0-7 3.14-7 7s3.14 7 7 7 7-3.14 7-7-3.14-7-7-7z"/>
        </g>
      </g>
    </g>
  </g>
</svg>
