<svg xmlns="http://www.w3.org/2000/svg" xmlns:xlink="http://www.w3.org/1999/xlink" width="54" height="54">
  <defs>
    <path id="path-1" d="M0 53.932h54V0H0z"/>
  </defs>
  <g id="Mockups" fill="none" fill-rule="evenodd">
    <g id="Home-&gt;-Technology-Service-&gt;-Hover" transform="translate(-191 -317)">
      <g id="Group" transform="translate(191 30)">
        <g id="Smart-Systems-" transform="translate(0 287)">
          <g id="Group-3">
            <mask id="mask-2" fill="#fff">
              <use xlink:href="#path-1"/>
            </mask>
            <path id="Fill-1" fill="#FFF" d="M53.099 10.802H41.4V7.11c1.53-.36 2.7-1.801 2.7-3.511A3.609 3.609 0 0 0 40.5 0a3.609 3.609 0 0 0-3.599 3.599c0 1.71 1.169 3.063 2.698 3.511v3.692H27.9V7.11c1.53-.36 2.7-1.801 2.7-3.511A3.609 3.609 0 0 0 27 0a3.609 3.609 0 0 0-3.599 3.599c0 1.71 1.169 3.063 2.698 3.511v3.692H14.4V7.11c1.53-.36 2.7-1.801 2.7-3.511A3.609 3.609 0 0 0 13.5 0a3.609 3.609 0 0 0-3.599 3.599c0 1.71 1.169 3.063 2.698 3.511v3.692H.9c-.541 0-.901.36-.901.896V54h1.802v-7.198h50.396V54H54V11.698c0-.536-.36-.896-.901-.896zM38.698 3.6c0-.989.813-1.797 1.802-1.797.989 0 1.802.808 1.802 1.797A1.81 1.81 0 0 1 40.5 5.4a1.81 1.81 0 0 1-1.802-1.8zm-13.5 0c0-.989.813-1.797 1.802-1.797.989 0 1.802.808 1.802 1.797A1.81 1.81 0 0 1 27 5.4a1.81 1.81 0 0 1-1.802-1.8zm-13.5 0c0-.989.813-1.797 1.802-1.797.989 0 1.802.808 1.802 1.797A1.81 1.81 0 0 1 13.5 5.4a1.81 1.81 0 0 1-1.802-1.8zM50.4 45V15.302c0-.54-.361-.9-.901-.9h-6.302v1.796h5.4V45H27.902v-2.698H26.1V45H5.4V16.198H9V14.4H4.5c-.54 0-.901.36-.901.901V45H1.802V12.599H12.6V36c0 .54.361.901.901.901h14.401V35.1h-13.5V12.6H26.1v6.3h1.8v-6.3h11.7v11.703H26.1V26.1h14.4c.54 0 .901-.36.901-.901v-12.6h10.797V45H50.4z" mask="url(#mask-2)"/>
          </g>
        </g>
      </g>
    </g>
  </g>
</svg>
