<svg xmlns="http://www.w3.org/2000/svg" xmlns:xlink="http://www.w3.org/1999/xlink" width="41" height="41">
  <defs>
    <path id="path-1" d="M.005 41H41V0H.005z"/>
  </defs>
  <g id="Mockups" fill="none" fill-rule="evenodd">
    <g id="Home-&gt;-Technology-Service-&gt;-Hover" transform="translate(-198 -401)">
      <g id="Group" transform="translate(191 30)">
        <g id="Vice/-Data" transform="translate(7 371)">
          <g id="Group-5">
            <mask id="mask-2" fill="#fff">
              <use xlink:href="#path-1"/>
            </mask>
            <path id="Fill-1" fill="#FFF" d="M35.615 35.904l-8.034-8.033 2.09-2.09 8.033 8.034s-2.088 2.09-2.09 2.09zm-2.86 1.062h-.001c-1.77 1.77-4.897 2.061-8.806.823-4.184-1.326-8.653-4.222-12.584-8.153-3.932-3.93-6.827-8.4-8.153-12.584-1.239-3.91-.946-7.037.823-8.807l.222-.221 6.234 6.234-.571.572-.002.001c-2.369 2.372.478 7.7 4.515 11.737 3.022 3.021 6.766 5.376 9.453 5.376.904 0 1.688-.266 2.285-.863l.572-.572 6.234 6.235-.222.222zM7.184 3.296l8.033 8.034-2.088 2.09v-.001L5.094 5.385l2.09-2.09zm24.224 20.746a2.462 2.462 0 0 0-3.478 0l-2.089 2.09a2.46 2.46 0 0 0-.622 2.421l-.789.788v.001c-.56.56-4.046-.3-8.26-4.513-4.213-4.214-5.073-7.7-4.514-8.26l.79-.789a2.452 2.452 0 0 0 2.422-.623l2.088-2.088a2.462 2.462 0 0 0 0-3.478L8.924 1.557a2.443 2.443 0 0 0-1.74-.72c-.657 0-1.274.255-1.739.72L3.356 3.646a2.46 2.46 0 0 0-.622 2.422s-.668.674-.702.717C-.19 9.255-.607 13.145.866 17.795c1.443 4.552 4.553 9.376 8.758 13.58 4.205 4.205 9.028 7.315 13.581 8.758 1.83.58 3.54.867 5.094.867 2.548 0 4.672-.773 6.194-2.295l.439-.438a2.443 2.443 0 0 0 2.422-.623l2.089-2.09a2.462 2.462 0 0 0 0-3.478l-8.034-8.034z" mask="url(#mask-2)"/>
            <path id="Fill-3" fill="#FFF" d="M32.303 18.62a1.23 1.23 0 0 0 2.46 0c0-3.307-1.289-6.417-3.627-8.756a12.302 12.302 0 0 0-8.756-3.627 1.23 1.23 0 1 0 0 2.46 9.858 9.858 0 0 1 7.017 2.906 9.857 9.857 0 0 1 2.906 7.017" mask="url(#mask-2)"/>
            <path id="Fill-4" fill="#FFF" d="M35.546 5.454A18.499 18.499 0 0 0 22.38 0a1.23 1.23 0 1 0 0 2.46c4.317 0 8.375 1.68 11.428 4.733A16.055 16.055 0 0 1 38.54 18.62a1.23 1.23 0 0 0 2.46 0c0-4.974-1.937-9.65-5.454-13.167" mask="url(#mask-2)"/>
          </g>
          <path id="Fill-6" fill="#FFF" d="M22.167 12a1.167 1.167 0 1 0 0 2.334c.962 0 1.794.345 2.474 1.025a3.43 3.43 0 0 1 1.025 2.474 1.167 1.167 0 0 0 2.334 0 5.72 5.72 0 0 0-1.708-4.125A5.717 5.717 0 0 0 22.168 12"/>
        </g>
      </g>
    </g>
  </g>
</svg>
